<mxfile host="Electron" modified="2024-09-04T00:58:45.496Z" agent="Mozilla/5.0 (X11; Linux x86_64) AppleWebKit/537.36 (KHTML, like Gecko) draw.io/24.6.4 Chrome/124.0.6367.207 Electron/30.0.6 Safari/537.36" etag="g2cdyrY7XfUJmkBvj4zm" version="24.6.4" type="device">
  <diagram name="Page-1" id="LO-FXDnCTLfh1SitMYJr">
    <mxGraphModel dx="1687" dy="994" grid="1" gridSize="10" guides="1" tooltips="1" connect="1" arrows="1" fold="1" page="1" pageScale="1" pageWidth="827" pageHeight="1169" background="none" math="0" shadow="0">
      <root>
        <mxCell id="0" />
        <mxCell id="1" parent="0" />
        <mxCell id="ay1g0kjAbWWVGsq-Eku0-4" value="" style="rounded=0;whiteSpace=wrap;html=1;" parent="1" vertex="1">
          <mxGeometry x="170" y="40" width="340" height="76" as="geometry" />
        </mxCell>
        <mxCell id="ay1g0kjAbWWVGsq-Eku0-2" value="" style="rounded=0;whiteSpace=wrap;html=1;" parent="1" vertex="1">
          <mxGeometry x="375" y="240" width="210" height="110" as="geometry" />
        </mxCell>
        <mxCell id="ay1g0kjAbWWVGsq-Eku0-7" style="edgeStyle=orthogonalEdgeStyle;rounded=0;orthogonalLoop=1;jettySize=auto;html=1;" parent="1" source="ay1g0kjAbWWVGsq-Eku0-1" edge="1">
          <mxGeometry relative="1" as="geometry">
            <mxPoint x="479.9999999999998" y="460" as="targetPoint" />
          </mxGeometry>
        </mxCell>
        <mxCell id="ay1g0kjAbWWVGsq-Eku0-31" style="edgeStyle=orthogonalEdgeStyle;rounded=0;orthogonalLoop=1;jettySize=auto;html=1;entryX=0;entryY=0.5;entryDx=0;entryDy=0;" parent="1" source="ay1g0kjAbWWVGsq-Eku0-1" target="ay1g0kjAbWWVGsq-Eku0-30" edge="1">
          <mxGeometry relative="1" as="geometry" />
        </mxCell>
        <mxCell id="ay1g0kjAbWWVGsq-Eku0-1" value="Evolution Conquer" style="text;html=1;align=center;verticalAlign=middle;whiteSpace=wrap;rounded=0;fontStyle=1;fontSize=19;" parent="1" vertex="1">
          <mxGeometry x="380" y="240" width="200" height="110" as="geometry" />
        </mxCell>
        <mxCell id="ay1g0kjAbWWVGsq-Eku0-3" value="" style="shadow=0;dashed=0;html=1;strokeColor=#2D7600;fillColor=#60a917;labelPosition=center;verticalLabelPosition=bottom;verticalAlign=top;align=center;outlineConnect=0;shape=mxgraph.veeam.checked;fontColor=#ffffff;" parent="1" vertex="1">
          <mxGeometry x="190" y="60" width="36" height="36" as="geometry" />
        </mxCell>
        <mxCell id="ay1g0kjAbWWVGsq-Eku0-6" value="ASSETS" style="text;html=1;align=center;verticalAlign=middle;whiteSpace=wrap;rounded=0;fontStyle=1" parent="1" vertex="1">
          <mxGeometry x="300" y="10" width="60" height="30" as="geometry" />
        </mxCell>
        <mxCell id="ay1g0kjAbWWVGsq-Eku0-9" style="edgeStyle=orthogonalEdgeStyle;rounded=0;orthogonalLoop=1;jettySize=auto;html=1;exitX=0;exitY=0.5;exitDx=0;exitDy=0;entryX=0.5;entryY=0;entryDx=0;entryDy=0;" parent="1" source="ay1g0kjAbWWVGsq-Eku0-8" target="ay1g0kjAbWWVGsq-Eku0-10" edge="1">
          <mxGeometry relative="1" as="geometry">
            <mxPoint x="160" y="640" as="targetPoint" />
          </mxGeometry>
        </mxCell>
        <mxCell id="ay1g0kjAbWWVGsq-Eku0-8" value="Versions" style="rounded=0;whiteSpace=wrap;html=1;" parent="1" vertex="1">
          <mxGeometry x="420" y="460" width="120" height="60" as="geometry" />
        </mxCell>
        <mxCell id="ay1g0kjAbWWVGsq-Eku0-10" value="1.1" style="swimlane;fontStyle=0;childLayout=stackLayout;horizontal=1;startSize=30;horizontalStack=0;resizeParent=1;resizeParentMax=0;resizeLast=0;collapsible=1;marginBottom=0;whiteSpace=wrap;html=1;" parent="1" vertex="1">
          <mxGeometry x="130" y="640" width="210" height="420" as="geometry" />
        </mxCell>
        <mxCell id="ay1g0kjAbWWVGsq-Eku0-11" value="Added Changes log" style="text;strokeColor=none;fillColor=none;align=left;verticalAlign=middle;spacingLeft=4;spacingRight=4;overflow=hidden;points=[[0,0.5],[1,0.5]];portConstraint=eastwest;rotatable=0;whiteSpace=wrap;html=1;" parent="ay1g0kjAbWWVGsq-Eku0-10" vertex="1">
          <mxGeometry y="30" width="210" height="30" as="geometry" />
        </mxCell>
        <mxCell id="ay1g0kjAbWWVGsq-Eku0-12" value="Level Selection" style="text;strokeColor=none;fillColor=none;align=left;verticalAlign=middle;spacingLeft=4;spacingRight=4;overflow=hidden;points=[[0,0.5],[1,0.5]];portConstraint=eastwest;rotatable=0;whiteSpace=wrap;html=1;" parent="ay1g0kjAbWWVGsq-Eku0-10" vertex="1">
          <mxGeometry y="60" width="210" height="30" as="geometry" />
        </mxCell>
        <mxCell id="ay1g0kjAbWWVGsq-Eku0-13" value="Linux version" style="text;strokeColor=none;fillColor=none;align=left;verticalAlign=middle;spacingLeft=4;spacingRight=4;overflow=hidden;points=[[0,0.5],[1,0.5]];portConstraint=eastwest;rotatable=0;whiteSpace=wrap;html=1;" parent="ay1g0kjAbWWVGsq-Eku0-10" vertex="1">
          <mxGeometry y="90" width="210" height="30" as="geometry" />
        </mxCell>
        <mxCell id="ay1g0kjAbWWVGsq-Eku0-14" value="new respawn mechanics" style="text;strokeColor=none;fillColor=none;align=left;verticalAlign=middle;spacingLeft=4;spacingRight=4;overflow=hidden;points=[[0,0.5],[1,0.5]];portConstraint=eastwest;rotatable=0;whiteSpace=wrap;html=1;" parent="ay1g0kjAbWWVGsq-Eku0-10" vertex="1">
          <mxGeometry y="120" width="210" height="30" as="geometry" />
        </mxCell>
        <mxCell id="ay1g0kjAbWWVGsq-Eku0-15" value="Cell slower and more predictable" style="text;strokeColor=none;fillColor=none;align=left;verticalAlign=middle;spacingLeft=4;spacingRight=4;overflow=hidden;points=[[0,0.5],[1,0.5]];portConstraint=eastwest;rotatable=0;whiteSpace=wrap;html=1;" parent="ay1g0kjAbWWVGsq-Eku0-10" vertex="1">
          <mxGeometry y="150" width="210" height="30" as="geometry" />
        </mxCell>
        <mxCell id="ay1g0kjAbWWVGsq-Eku0-16" value="Settings Fixed" style="text;strokeColor=none;fillColor=none;align=left;verticalAlign=middle;spacingLeft=4;spacingRight=4;overflow=hidden;points=[[0,0.5],[1,0.5]];portConstraint=eastwest;rotatable=0;whiteSpace=wrap;html=1;" parent="ay1g0kjAbWWVGsq-Eku0-10" vertex="1">
          <mxGeometry y="180" width="210" height="30" as="geometry" />
        </mxCell>
        <mxCell id="ay1g0kjAbWWVGsq-Eku0-17" value="Rebuild water level" style="text;strokeColor=none;fillColor=none;align=left;verticalAlign=middle;spacingLeft=4;spacingRight=4;overflow=hidden;points=[[0,0.5],[1,0.5]];portConstraint=eastwest;rotatable=0;whiteSpace=wrap;html=1;" parent="ay1g0kjAbWWVGsq-Eku0-10" vertex="1">
          <mxGeometry y="210" width="210" height="30" as="geometry" />
        </mxCell>
        <mxCell id="ay1g0kjAbWWVGsq-Eku0-18" value="Rebuild sky level" style="text;strokeColor=none;fillColor=none;align=left;verticalAlign=middle;spacingLeft=4;spacingRight=4;overflow=hidden;points=[[0,0.5],[1,0.5]];portConstraint=eastwest;rotatable=0;whiteSpace=wrap;html=1;" parent="ay1g0kjAbWWVGsq-Eku0-10" vertex="1">
          <mxGeometry y="240" width="210" height="30" as="geometry" />
        </mxCell>
        <mxCell id="ay1g0kjAbWWVGsq-Eku0-19" value="settings and proggress saving" style="text;strokeColor=none;fillColor=none;align=left;verticalAlign=middle;spacingLeft=4;spacingRight=4;overflow=hidden;points=[[0,0.5],[1,0.5]];portConstraint=eastwest;rotatable=0;whiteSpace=wrap;html=1;" parent="ay1g0kjAbWWVGsq-Eku0-10" vertex="1">
          <mxGeometry y="270" width="210" height="30" as="geometry" />
        </mxCell>
        <mxCell id="ay1g0kjAbWWVGsq-Eku0-20" value="new collisions shapes player" style="text;strokeColor=none;fillColor=none;align=left;verticalAlign=middle;spacingLeft=4;spacingRight=4;overflow=hidden;points=[[0,0.5],[1,0.5]];portConstraint=eastwest;rotatable=0;whiteSpace=wrap;html=1;" parent="ay1g0kjAbWWVGsq-Eku0-10" vertex="1">
          <mxGeometry y="300" width="210" height="30" as="geometry" />
        </mxCell>
        <mxCell id="ay1g0kjAbWWVGsq-Eku0-21" value="new collisions shapes enemies" style="text;strokeColor=none;fillColor=none;align=left;verticalAlign=middle;spacingLeft=4;spacingRight=4;overflow=hidden;points=[[0,0.5],[1,0.5]];portConstraint=eastwest;rotatable=0;whiteSpace=wrap;html=1;" parent="ay1g0kjAbWWVGsq-Eku0-10" vertex="1">
          <mxGeometry y="330" width="210" height="30" as="geometry" />
        </mxCell>
        <mxCell id="ay1g0kjAbWWVGsq-Eku0-22" value="evolution bar" style="text;strokeColor=none;fillColor=none;align=left;verticalAlign=middle;spacingLeft=4;spacingRight=4;overflow=hidden;points=[[0,0.5],[1,0.5]];portConstraint=eastwest;rotatable=0;whiteSpace=wrap;html=1;" parent="ay1g0kjAbWWVGsq-Eku0-10" vertex="1">
          <mxGeometry y="360" width="210" height="30" as="geometry" />
        </mxCell>
        <mxCell id="pFRi8MqsUdOJGWQrqxk0-6" value="player movement bug fixed" style="text;strokeColor=none;fillColor=none;align=left;verticalAlign=middle;spacingLeft=4;spacingRight=4;overflow=hidden;points=[[0,0.5],[1,0.5]];portConstraint=eastwest;rotatable=0;whiteSpace=wrap;html=1;" parent="ay1g0kjAbWWVGsq-Eku0-10" vertex="1">
          <mxGeometry y="390" width="210" height="30" as="geometry" />
        </mxCell>
        <mxCell id="ay1g0kjAbWWVGsq-Eku0-24" style="edgeStyle=orthogonalEdgeStyle;rounded=0;orthogonalLoop=1;jettySize=auto;html=1;entryX=0;entryY=0.5;entryDx=0;entryDy=0;" parent="1" source="ay1g0kjAbWWVGsq-Eku0-23" target="ay1g0kjAbWWVGsq-Eku0-11" edge="1">
          <mxGeometry relative="1" as="geometry" />
        </mxCell>
        <mxCell id="ay1g0kjAbWWVGsq-Eku0-23" value="" style="shadow=0;dashed=0;html=1;strokeColor=#2D7600;fillColor=#60a917;labelPosition=center;verticalLabelPosition=bottom;verticalAlign=top;align=center;outlineConnect=0;shape=mxgraph.veeam.checked;fontColor=#ffffff;" parent="1" vertex="1">
          <mxGeometry x="90" y="670" width="30" height="30" as="geometry" />
        </mxCell>
        <mxCell id="ay1g0kjAbWWVGsq-Eku0-26" style="edgeStyle=orthogonalEdgeStyle;rounded=0;orthogonalLoop=1;jettySize=auto;html=1;entryX=0;entryY=0.5;entryDx=0;entryDy=0;" parent="1" source="ay1g0kjAbWWVGsq-Eku0-25" target="ay1g0kjAbWWVGsq-Eku0-12" edge="1">
          <mxGeometry relative="1" as="geometry" />
        </mxCell>
        <mxCell id="ay1g0kjAbWWVGsq-Eku0-25" value="" style="shadow=0;dashed=0;html=1;strokeColor=#2D7600;fillColor=#60a917;labelPosition=center;verticalLabelPosition=bottom;verticalAlign=top;align=center;outlineConnect=0;shape=mxgraph.veeam.checked;fontColor=#ffffff;" parent="1" vertex="1">
          <mxGeometry x="90" y="700" width="30" height="30" as="geometry" />
        </mxCell>
        <mxCell id="ay1g0kjAbWWVGsq-Eku0-28" style="edgeStyle=orthogonalEdgeStyle;rounded=0;orthogonalLoop=1;jettySize=auto;html=1;entryX=0;entryY=0.5;entryDx=0;entryDy=0;" parent="1" source="ay1g0kjAbWWVGsq-Eku0-27" target="ay1g0kjAbWWVGsq-Eku0-20" edge="1">
          <mxGeometry relative="1" as="geometry" />
        </mxCell>
        <mxCell id="ay1g0kjAbWWVGsq-Eku0-27" value="" style="shadow=0;dashed=0;html=1;strokeColor=#2D7600;fillColor=#60a917;labelPosition=center;verticalLabelPosition=bottom;verticalAlign=top;align=center;outlineConnect=0;shape=mxgraph.veeam.checked;fontColor=#ffffff;" parent="1" vertex="1">
          <mxGeometry x="90" y="940" width="30" height="30" as="geometry" />
        </mxCell>
        <mxCell id="ay1g0kjAbWWVGsq-Eku0-45" style="edgeStyle=orthogonalEdgeStyle;rounded=0;orthogonalLoop=1;jettySize=auto;html=1;entryX=0.5;entryY=0;entryDx=0;entryDy=0;" parent="1" source="ay1g0kjAbWWVGsq-Eku0-30" target="ay1g0kjAbWWVGsq-Eku0-32" edge="1">
          <mxGeometry relative="1" as="geometry" />
        </mxCell>
        <mxCell id="ay1g0kjAbWWVGsq-Eku0-30" value="Ideas" style="rounded=0;whiteSpace=wrap;html=1;" parent="1" vertex="1">
          <mxGeometry x="850" y="20" width="120" height="60" as="geometry" />
        </mxCell>
        <mxCell id="ay1g0kjAbWWVGsq-Eku0-32" value="" style="swimlane;fontStyle=0;childLayout=stackLayout;horizontal=1;startSize=30;horizontalStack=0;resizeParent=1;resizeParentMax=0;resizeLast=0;collapsible=1;marginBottom=0;whiteSpace=wrap;html=1;" parent="1" vertex="1">
          <mxGeometry x="745" y="140" width="330" height="180" as="geometry" />
        </mxCell>
        <mxCell id="ay1g0kjAbWWVGsq-Eku0-33" value="Transformation animation (cell -&amp;gt; fish -&amp;gt; bird -&amp;gt; comet)" style="text;strokeColor=none;fillColor=none;align=left;verticalAlign=middle;spacingLeft=4;spacingRight=4;overflow=hidden;points=[[0,0.5],[1,0.5]];portConstraint=eastwest;rotatable=0;whiteSpace=wrap;html=1;" parent="ay1g0kjAbWWVGsq-Eku0-32" vertex="1">
          <mxGeometry y="30" width="330" height="30" as="geometry" />
        </mxCell>
        <mxCell id="ay1g0kjAbWWVGsq-Eku0-34" value="Abilities" style="text;strokeColor=none;fillColor=none;align=left;verticalAlign=middle;spacingLeft=4;spacingRight=4;overflow=hidden;points=[[0,0.5],[1,0.5]];portConstraint=eastwest;rotatable=0;whiteSpace=wrap;html=1;" parent="ay1g0kjAbWWVGsq-Eku0-32" vertex="1">
          <mxGeometry y="60" width="330" height="30" as="geometry" />
        </mxCell>
        <mxCell id="ay1g0kjAbWWVGsq-Eku0-46" value="Restart proggress" style="text;strokeColor=none;fillColor=none;align=left;verticalAlign=middle;spacingLeft=4;spacingRight=4;overflow=hidden;points=[[0,0.5],[1,0.5]];portConstraint=eastwest;rotatable=0;whiteSpace=wrap;html=1;" parent="ay1g0kjAbWWVGsq-Eku0-32" vertex="1">
          <mxGeometry y="90" width="330" height="30" as="geometry" />
        </mxCell>
        <mxCell id="pFRi8MqsUdOJGWQrqxk0-5" value="web version" style="text;strokeColor=none;fillColor=none;align=left;verticalAlign=middle;spacingLeft=4;spacingRight=4;overflow=hidden;points=[[0,0.5],[1,0.5]];portConstraint=eastwest;rotatable=0;whiteSpace=wrap;html=1;" parent="ay1g0kjAbWWVGsq-Eku0-32" vertex="1">
          <mxGeometry y="120" width="330" height="30" as="geometry" />
        </mxCell>
        <mxCell id="s8uJ8yfwLKf7DTUGWUfE-1" value="Timer" style="text;strokeColor=none;fillColor=none;align=left;verticalAlign=middle;spacingLeft=4;spacingRight=4;overflow=hidden;points=[[0,0.5],[1,0.5]];portConstraint=eastwest;rotatable=0;whiteSpace=wrap;html=1;" parent="ay1g0kjAbWWVGsq-Eku0-32" vertex="1">
          <mxGeometry y="150" width="330" height="30" as="geometry" />
        </mxCell>
        <mxCell id="pFRi8MqsUdOJGWQrqxk0-4" style="edgeStyle=orthogonalEdgeStyle;rounded=0;orthogonalLoop=1;jettySize=auto;html=1;entryX=0;entryY=0.5;entryDx=0;entryDy=0;" parent="1" source="pFRi8MqsUdOJGWQrqxk0-1" target="ay1g0kjAbWWVGsq-Eku0-15" edge="1">
          <mxGeometry relative="1" as="geometry" />
        </mxCell>
        <mxCell id="pFRi8MqsUdOJGWQrqxk0-1" value="" style="shadow=0;dashed=0;html=1;strokeColor=#2D7600;fillColor=#60a917;labelPosition=center;verticalLabelPosition=bottom;verticalAlign=top;align=center;outlineConnect=0;shape=mxgraph.veeam.checked;fontColor=#ffffff;" parent="1" vertex="1">
          <mxGeometry x="90" y="790" width="30" height="30" as="geometry" />
        </mxCell>
        <mxCell id="pFRi8MqsUdOJGWQrqxk0-8" style="edgeStyle=orthogonalEdgeStyle;rounded=0;orthogonalLoop=1;jettySize=auto;html=1;entryX=0;entryY=0.5;entryDx=0;entryDy=0;" parent="1" source="pFRi8MqsUdOJGWQrqxk0-7" target="pFRi8MqsUdOJGWQrqxk0-6" edge="1">
          <mxGeometry relative="1" as="geometry" />
        </mxCell>
        <mxCell id="pFRi8MqsUdOJGWQrqxk0-7" value="" style="shadow=0;dashed=0;html=1;strokeColor=#2D7600;fillColor=#60a917;labelPosition=center;verticalLabelPosition=bottom;verticalAlign=top;align=center;outlineConnect=0;shape=mxgraph.veeam.checked;fontColor=#ffffff;" parent="1" vertex="1">
          <mxGeometry x="90" y="1030" width="30" height="30" as="geometry" />
        </mxCell>
        <mxCell id="s8uJ8yfwLKf7DTUGWUfE-3" style="edgeStyle=orthogonalEdgeStyle;rounded=0;orthogonalLoop=1;jettySize=auto;html=1;" parent="1" source="s8uJ8yfwLKf7DTUGWUfE-2" target="ay1g0kjAbWWVGsq-Eku0-22" edge="1">
          <mxGeometry relative="1" as="geometry" />
        </mxCell>
        <mxCell id="s8uJ8yfwLKf7DTUGWUfE-2" value="" style="shadow=0;dashed=0;html=1;strokeColor=#2D7600;fillColor=#60a917;labelPosition=center;verticalLabelPosition=bottom;verticalAlign=top;align=center;outlineConnect=0;shape=mxgraph.veeam.checked;fontColor=#ffffff;" parent="1" vertex="1">
          <mxGeometry x="90" y="1000" width="30" height="30" as="geometry" />
        </mxCell>
        <mxCell id="s8uJ8yfwLKf7DTUGWUfE-5" style="edgeStyle=orthogonalEdgeStyle;rounded=0;orthogonalLoop=1;jettySize=auto;html=1;" parent="1" source="s8uJ8yfwLKf7DTUGWUfE-4" target="ay1g0kjAbWWVGsq-Eku0-21" edge="1">
          <mxGeometry relative="1" as="geometry" />
        </mxCell>
        <mxCell id="s8uJ8yfwLKf7DTUGWUfE-4" value="" style="shadow=0;dashed=0;html=1;strokeColor=#2D7600;fillColor=#60a917;labelPosition=center;verticalLabelPosition=bottom;verticalAlign=top;align=center;outlineConnect=0;shape=mxgraph.veeam.checked;fontColor=#ffffff;" parent="1" vertex="1">
          <mxGeometry x="90" y="970" width="30" height="30" as="geometry" />
        </mxCell>
        <mxCell id="plVSzFpOTiDrOdCnOxGK-2" style="edgeStyle=orthogonalEdgeStyle;rounded=0;orthogonalLoop=1;jettySize=auto;html=1;" edge="1" parent="1" source="plVSzFpOTiDrOdCnOxGK-1" target="ay1g0kjAbWWVGsq-Eku0-16">
          <mxGeometry relative="1" as="geometry" />
        </mxCell>
        <mxCell id="plVSzFpOTiDrOdCnOxGK-1" value="" style="shadow=0;dashed=0;html=1;strokeColor=#2D7600;fillColor=#60a917;labelPosition=center;verticalLabelPosition=bottom;verticalAlign=top;align=center;outlineConnect=0;shape=mxgraph.veeam.checked;fontColor=#ffffff;" vertex="1" parent="1">
          <mxGeometry x="90" y="820" width="30" height="30" as="geometry" />
        </mxCell>
        <mxCell id="plVSzFpOTiDrOdCnOxGK-6" style="edgeStyle=orthogonalEdgeStyle;rounded=0;orthogonalLoop=1;jettySize=auto;html=1;" edge="1" parent="1" source="plVSzFpOTiDrOdCnOxGK-5" target="ay1g0kjAbWWVGsq-Eku0-14">
          <mxGeometry relative="1" as="geometry" />
        </mxCell>
        <mxCell id="plVSzFpOTiDrOdCnOxGK-5" value="" style="shadow=0;dashed=0;html=1;strokeColor=#C73500;fillColor=#fa6800;labelPosition=center;verticalLabelPosition=bottom;verticalAlign=top;align=center;outlineConnect=0;shape=mxgraph.veeam.checked;fontColor=#000000;" vertex="1" parent="1">
          <mxGeometry x="90" y="760" width="30" height="30" as="geometry" />
        </mxCell>
      </root>
    </mxGraphModel>
  </diagram>
</mxfile>
